<svg id="Layer_1" data-name="Layer 1" xmlns="http://www.w3.org/2000/svg" viewBox="0 0 162 24"><defs><style>.cls-1{fill:#fff;}.cls-2{fill:#e21f26;}</style></defs><title>yokohama-logo</title><polygon class="cls-1" points="49.88 3.26 46.27 10.62 42.68 3.26 39.2 3.26 44.7 13.78 44.7 20.21 47.85 20.21 47.85 13.78 53.35 3.26 49.88 3.26"/><polygon class="cls-1" points="127.57 8.2 127.57 20.21 124.38 20.21 124.38 3.26 128.66 3.26 133.07 15.4 137.4 3.26 141.69 3.26 141.69 20.21 138.49 20.21 138.49 8.2 134.2 20.21 131.86 20.21 127.57 8.2"/><polygon class="cls-1" points="72.08 12.93 77.46 20.21 81.1 20.21 74.67 11.35 80.78 3.26 77.01 3.26 72.08 10.22 72.08 3.26 69.01 3.26 69.01 20.21 72.08 20.21 72.08 12.93"/><polygon class="cls-1" points="99.09 9.93 104.95 9.93 104.96 3.26 108.04 3.26 108.04 20.21 104.96 20.21 104.96 13.13 99.11 13.13 99.1 20.21 96.02 20.21 96.02 3.26 99.1 3.26 99.09 9.93"/><path class="cls-1" d="M147.93,12.6l1.8-4.73,1.85,4.74h-3.65Zm3-9.34h-2.55L141.8,20.21H145l1.7-4.44h6l1.69,4.44h3.23Z"/><path class="cls-2" d="M25.79,9L25,8.26,32.8,0.47H30.64L23.91,7.16l-0.76-.74,5.94-5.94H26.94L22.05,5.31l-0.78-.75,4.1-4.1H23.22l-3,3-3-3H15L26.53,12,15.11,23.53h2.2L40.24,0.47H38.08L27.63,10.89l-0.77-.76,9.66-9.66H34.36ZM13.44,0.47L25,12,13.57,23.53h-2.2L22.79,12,11.25,0.47h2.2Zm-3.72,0L21.26,12,9.85,23.53H7.65L19.07,12,7.53,0.47h2.2ZM6,0.47L17.54,12,6.13,23.53H3.93L15.35,12,3.81,0.47H6Zm-3.72,0L13.82,12,2.41,23.53H0.21L11.63,12,0.09,0.47h2.2Z"/><path class="cls-1" d="M114.42,12.6l1.8-4.73,1.85,4.73h-3.64Zm3-9.34h-2.55l-6.63,16.95h3.23l1.7-4.44h6l1.69,4.44h3.23Z"/><path class="cls-1" d="M86.76,17.5a5.68,5.68,0,0,1-5.54-5.8,5.55,5.55,0,1,1,11.08,0,5.68,5.68,0,0,1-5.54,5.8m0-14.72a8.8,8.8,0,0,0-8.66,8.94,8.66,8.66,0,1,0,17.31,0,8.8,8.8,0,0,0-8.65-8.94"/><path class="cls-1" d="M59.78,17.5a5.68,5.68,0,0,1-5.54-5.8,5.55,5.55,0,1,1,11.08,0,5.68,5.68,0,0,1-5.54,5.8m0-14.72a8.8,8.8,0,0,0-8.66,8.94,8.66,8.66,0,1,0,17.31,0,8.8,8.8,0,0,0-8.66-8.94"/><path class="cls-1" d="M160.63,18.33a0.52,0.52,0,0,1-.31.08h-0.64V17.69h0.68a0.5,0.5,0,0,1,.23,0,0.31,0.31,0,0,1,.16.31,0.33,0.33,0,0,1-.11.29M161,19.38a0.79,0.79,0,0,1,0-.18V18.92a0.49,0.49,0,0,0-.07-0.27,0.43,0.43,0,0,0-.19-0.13,0.56,0.56,0,0,0,.22-0.2A0.55,0.55,0,0,0,161,18a0.5,0.5,0,0,0-.29-0.5,1,1,0,0,0-.39-0.07h-1v2.12h0.29V18.65h0.63a0.6,0.6,0,0,1,.25,0,0.3,0.3,0,0,1,.15.28l0,0.35a1.15,1.15,0,0,0,0,.17,0.29,0.29,0,0,0,0,.07h0.35v0a0.18,0.18,0,0,1-.09-0.13"/><path class="cls-1" d="M160.21,20a1.48,1.48,0,1,1,1.48-1.48A1.49,1.49,0,0,1,160.21,20m0-3.19a1.7,1.7,0,1,0,1.7,1.7,1.71,1.71,0,0,0-1.7-1.7"/></svg>